dummy_motion.mot										
nRows=44										
nColumns=11										
name dummy_motion.mot										
datacolumns 11										
datarows 44										
range 12.51 12.94										
endheader										
time	pelvis_tilt	pelvis_tx	pelvis_ty	hip_flexion_r	knee_angle_r	ankle_angle_r	hip_flexion_l	knee_angle_l	ankle_angle_l	lumbar_extension
12.51	0	0	0	71.90642089	-61.45972738	12.58099164	71.90642089	-61.45972738	12.58099164	0
12.52	0	0	0	29.72737293	-93.27617827	6.989401715	29.72737293	-93.27617827	6.989401715	0
12.53	0	0	0	-25.8381504	1.25131156	-28.90359548	-25.8381504	1.25131156	-28.90359548	0
12.54	0	0	0	-13.40070338	-75.37827368	16.08157336	-13.40070338	-75.37827368	16.08157336	0
12.55	0	0	0	-43.59745152	3.916339828	-27.77317624	-43.59745152	3.916339828	-27.77317624	0
12.56	0	0	0	-32.57390226	-37.88724556	-38.76740653	-32.57390226	-37.88724556	-38.76740653	0
12.57	0	0	0	79.04803749	-95.08333549	-26.76557787	79.04803749	-95.08333549	-26.76557787	0
12.58	0	0	0	-43.3044156	-1.362094231	26.11624304	-43.3044156	-1.362094231	26.11624304	0
12.59	0	0	0	55.42411105	-61.39725504	-17.5883672	55.42411105	-61.39725504	-17.5883672	0
12.6	0	0	0	29.01805935	-95.34511374	-7.006869023	29.01805935	-95.34511374	-7.006869023	0
12.61	0	0	0	30.07350894	-47.23174134	-18.66888992	30.07350894	-47.23174134	-18.66888992	0
12.62	0	0	0	72.67904557	-38.59867757	11.5207975	72.67904557	-38.59867757	11.5207975	0
12.63	0	0	0	-36.98295589	-72.749611	-36.54912925	-36.98295589	-72.749611	-36.54912925	0
12.64	0	0	0	-9.799539541	7.306016241	-33.602574	-9.799539541	7.306016241	-33.602574	0
12.65	0	0	0	86.61187922	-61.32281158	-36.36723278	86.61187922	-61.32281158	-36.36723278	0
12.66	0	0	0	69.97153891	-60.8515663	2.782760929	69.97153891	-60.8515663	2.782760929	0
12.67	0	0	0	-46.91959206	-37.2172102	36.32078114	-46.91959206	-37.2172102	36.32078114	0
12.68	0	0	0	-40.39109503	-88.51118484	12.12779448	-40.39109503	-88.51118484	12.12779448	0
12.69	0	0	0	46.26629196	-119.922831	-23.74120906	46.26629196	-119.922831	-23.74120906	0
12.7	0	0	0	-23.29907321	-73.06948549	30.81500042	-23.29907321	-73.06948549	30.81500042	0
12.71	0	0	0	7.033472416	-76.47294462	-4.675639454	7.033472416	-76.47294462	-4.675639454	0
12.72	0	0	0	-31.37829348	-23.0013303	28.42741278	-31.37829348	-23.0013303	28.42741278	0
12.73	0	0	0	84.36127204	-119.7570169	29.74695744	84.36127204	-119.7570169	29.74695744	0
12.74	0	0	0	-66.18488571	-14.70981031	19.80034195	-66.18488571	-14.70981031	19.80034195	0
12.75	0	0	0	-33.84712577	-32.43315216	-20.44414569	-33.84712577	-32.43315216	-20.44414569	0
12.76	0	0	0	80.1670395	-96.04029288	-2.031967219	80.1670395	-96.04029288	-2.031967219	0
12.77	0	0	0	6.994085812	-106.9492627	-3.006537755	6.994085812	-106.9492627	-3.006537755	0
12.78	0	0	0	49.12190988	5.385618328	-48.94025816	49.12190988	5.385618328	-48.94025816	0
12.79	0	0	0	-67.3578899	-104.4845456	-38.05316891	-67.3578899	-104.4845456	-38.05316891	0
12.8	0	0	0	31.77546552	-14.27644575	-28.87540114	31.77546552	-14.27644575	-28.87540114	0
12.81	0	0	0	4.599974904	-77.72163164	7.623892583	4.599974904	-77.72163164	7.623892583	0
12.82	0	0	0	51.78802009	-50.49829359	-28.66891978	51.78802009	-50.49829359	-28.66891978	0
12.83	0	0	0	-20.93843394	-45.26372595	-1.596639913	-20.93843394	-45.26372595	-1.596639913	0
12.84	0	0	0	10.56802289	-20.99575341	-13.45713684	10.56802289	-20.99575341	-13.45713684	0
12.85	0	0	0	-39.70557324	-38.02244523	-43.80994116	-39.70557324	-38.02244523	-43.80994116	0
12.86	0	0	0	-57.5474243	5.53005318	-41.45642564	-57.5474243	5.53005318	-41.45642564	0
12.87	0	0	0	-53.1703216	-11.40493296	23.99856871	-53.1703216	-11.40493296	23.99856871	0
12.88	0	0	0	-33.09542826	-43.40138321	8.258289425	-33.09542826	-43.40138321	8.258289425	0
12.89	0	0	0	69.59655634	-17.12580399	33.17931515	69.59655634	-17.12580399	33.17931515	0
12.9	0	0	0	-39.65646491	-78.04355344	-2.965602981	-39.65646491	-78.04355344	-2.965602981	0
12.91	0	0	0	2.900277642	-55.87168038	-32.69553664	2.900277642	-55.87168038	-32.69553664	0
12.92	0	0	0	-64.63539147	-77.44317779	-14.25642118	-64.63539147	-77.44317779	-14.25642118	0
12.93	0	0	0	77.8176536	-64.62208831	-30.93675258	77.8176536	-64.62208831	-30.93675258	0
12.94	0	0	0	89.92884863	-97.11227555	-0.486255613	89.92884863	-97.11227555	-0.486255613	0
